<?xml version="1.0" standalone="no"?>
<!DOCTYPE svg PUBLIC "-//W3C//DTD SVG 20010904//EN"
 "http://www.w3.org/TR/2001/REC-SVG-20010904/DTD/svg10.dtd">
<svg version="1.0" xmlns="http://www.w3.org/2000/svg"
 width="3000.000000pt" height="3000.000000pt" viewBox="0 0 3000.000000 3000.000000"
 preserveAspectRatio="xMidYMid meet">
<metadata>
Created by potrace 1.14, written by Peter Selinger 2001-2017
</metadata>
<g transform="translate(0.000000,3000.000000) scale(0.100000,-0.100000)"
fill="#000000" stroke="none">
<path d="M14568 29325 c-2 -1 -82 -6 -178 -9 -96 -4 -200 -9 -230 -12 -58 -5
-119 -9 -290 -19 -58 -4 -116 -8 -130 -11 -14 -2 -54 -6 -90 -9 -97 -8 -292
-29 -450 -50 -19 -3 -55 -7 -80 -10 -25 -3 -72 -10 -105 -15 -33 -5 -82 -12
-110 -15 -27 -4 -57 -8 -65 -10 -8 -2 -35 -7 -60 -10 -332 -45 -1207 -229
-1515 -320 -27 -8 -138 -40 -245 -70 -187 -53 -583 -177 -625 -194 -19 -9
-359 -129 -380 -135 -5 -2 -17 -6 -25 -9 -8 -4 -58 -23 -110 -42 -139 -53
-269 -105 -316 -126 -22 -11 -44 -19 -48 -19 -4 0 -28 -9 -54 -21 -26 -12 -60
-27 -77 -34 -64 -26 -241 -104 -322 -141 -287 -130 -763 -369 -1008 -507 -49
-27 -106 -59 -125 -70 -187 -104 -577 -340 -720 -434 -36 -24 -72 -48 -80 -53
-75 -48 -478 -323 -515 -352 -5 -5 -84 -63 -175 -131 -189 -140 -380 -287
-400 -307 -3 -3 -50 -41 -105 -85 -106 -84 -416 -348 -500 -425 -87 -80 -159
-145 -215 -196 -68 -61 -622 -613 -711 -709 -147 -157 -346 -382 -478 -540
-51 -60 -100 -119 -110 -131 -117 -137 -389 -490 -586 -761 -88 -120 -257
-367 -364 -533 -51 -80 -113 -175 -137 -212 -24 -37 -44 -70 -44 -73 0 -3 -5
-11 -11 -18 -30 -35 -314 -527 -453 -787 -57 -106 -287 -569 -344 -690 -57
-123 -160 -355 -212 -480 -29 -69 -70 -167 -91 -218 -21 -51 -39 -97 -39 -102
0 -6 -5 -18 -10 -28 -16 -27 -108 -275 -195 -522 -61 -177 -153 -464 -204
-640 -28 -96 -55 -188 -60 -205 -17 -53 -116 -433 -126 -484 -2 -9 -10 -43
-18 -76 -9 -33 -18 -71 -21 -85 -2 -14 -15 -74 -29 -135 -37 -161 -115 -564
-132 -680 -4 -22 -8 -47 -10 -55 -7 -25 -46 -285 -65 -430 -6 -47 -12 -98 -15
-115 -23 -173 -30 -232 -49 -454 -4 -36 -9 -91 -12 -121 -3 -30 -7 -73 -9 -95
-2 -22 -7 -92 -11 -155 -3 -63 -8 -133 -9 -155 -12 -156 -19 -459 -19 -805 0
-484 9 -743 39 -1110 2 -30 7 -86 10 -125 8 -101 20 -218 30 -305 2 -19 7 -60
10 -90 3 -30 10 -89 15 -130 5 -41 12 -97 16 -125 9 -79 60 -414 78 -515 3
-14 7 -41 10 -60 3 -19 10 -60 16 -90 6 -30 13 -67 15 -82 3 -14 17 -84 31
-155 37 -184 35 -173 59 -283 9 -41 18 -86 21 -100 43 -220 309 -1180 365
-1315 4 -11 29 -83 55 -160 94 -282 264 -724 397 -1030 123 -285 180 -406 339
-725 186 -373 222 -439 478 -885 139 -243 571 -910 655 -1012 6 -6 20 -27 33
-45 43 -63 336 -453 399 -533 79 -99 143 -177 330 -405 10 -13 25 -30 33 -39
9 -9 47 -52 85 -96 39 -44 72 -82 75 -85 3 -3 20 -23 39 -45 227 -267 827
-869 1126 -1130 38 -33 76 -67 84 -76 28 -27 242 -210 356 -304 136 -112 127
-104 205 -166 36 -28 76 -61 90 -73 24 -20 358 -271 470 -353 68 -49 179 -127
385 -268 146 -100 604 -387 745 -467 449 -255 545 -307 831 -450 401 -199 805
-380 1134 -508 61 -23 119 -46 130 -51 122 -53 584 -213 932 -323 374 -118
1000 -278 1373 -350 14 -3 61 -12 104 -21 44 -8 91 -17 105 -20 14 -3 37 -7
51 -10 14 -3 39 -8 55 -10 17 -2 84 -13 150 -25 66 -11 136 -23 155 -26 19 -3
46 -7 60 -10 14 -2 75 -11 135 -19 61 -9 126 -18 145 -21 78 -11 264 -33 266
-31 5 7 176 723 188 791 3 14 7 34 10 44 4 13 51 231 82 377 2 11 7 34 11 50
4 17 7 35 8 40 0 6 4 24 8 40 3 17 9 44 12 60 3 17 7 41 10 55 10 47 26 125
31 150 2 14 9 48 15 75 5 28 17 86 24 130 16 85 22 118 30 163 3 15 14 79 25
142 11 63 27 151 35 195 18 102 25 143 31 178 2 15 6 39 8 55 3 15 7 45 11 67
3 22 8 51 10 65 3 14 7 39 9 55 3 17 12 73 20 125 8 52 18 115 21 140 3 25 8
61 11 80 3 19 9 60 14 90 5 30 12 78 15 105 7 54 11 84 20 145 3 22 7 57 10
78 6 51 15 122 20 152 2 14 7 54 10 90 4 36 8 72 10 80 4 23 14 108 21 175 3
33 7 74 10 90 2 17 6 59 9 95 4 36 8 76 10 90 2 14 7 52 10 85 3 33 8 76 10
95 3 19 7 71 11 115 4 44 8 91 9 105 2 14 6 61 9 105 4 44 9 98 11 120 3 22 7
79 10 126 3 47 7 103 9 125 2 21 7 86 11 144 4 58 8 121 10 140 2 19 6 98 10
175 4 77 9 158 10 180 2 22 6 114 10 205 4 91 8 188 10 215 10 179 19 696 19
1145 -1 613 -13 1093 -39 1545 -3 39 -7 113 -10 165 -3 52 -7 124 -10 160 -7
98 -16 230 -20 275 -2 22 -6 83 -10 135 -4 52 -9 109 -11 125 -2 17 -6 66 -10
110 -3 44 -7 94 -9 110 -1 17 -6 64 -9 105 -4 41 -9 91 -12 110 -2 19 -6 62
-9 95 -3 33 -8 80 -11 105 -3 25 -7 56 -8 70 -2 14 -7 57 -11 95 -4 39 -8 77
-10 85 -2 9 -6 45 -10 80 -3 36 -8 76 -10 90 -2 14 -6 48 -9 75 -4 28 -8 64
-11 80 -2 17 -7 53 -10 80 -3 28 -13 97 -21 155 -8 58 -17 121 -19 140 -3 19
-7 46 -10 60 -3 14 -7 41 -9 60 -3 19 -10 69 -16 110 -6 41 -13 91 -16 110 -2
19 -9 60 -14 90 -16 90 -20 118 -46 270 -13 80 -26 159 -29 175 -3 17 -8 41
-10 55 -3 14 -7 36 -9 50 -3 14 -8 41 -10 60 -3 19 -8 46 -11 60 -3 14 -10 50
-16 80 -5 30 -19 100 -30 155 -10 55 -21 111 -24 125 -4 22 -16 82 -29 145 -3
11 -14 67 -25 124 -12 57 -23 106 -25 110 -2 3 -7 23 -10 43 -5 33 -14 73 -32
153 -3 11 -7 30 -10 42 -2 12 -16 71 -30 130 -14 60 -28 119 -30 133 -16 82
-191 768 -244 950 -25 88 -44 155 -45 160 -15 62 -128 437 -205 678 -141 446
-397 1158 -505 1407 -7 17 -30 71 -50 120 -61 146 -76 181 -156 357 -42 93
-75 168 -72 168 3 0 62 -32 132 -72 69 -39 151 -85 181 -101 30 -17 104 -59
164 -94 60 -35 110 -63 112 -63 3 0 23 -11 45 -26 22 -14 57 -34 77 -46 132
-74 274 -156 317 -183 28 -18 62 -38 77 -46 23 -12 164 -95 256 -150 15 -9 43
-25 62 -36 19 -11 112 -67 205 -123 94 -57 183 -110 198 -119 40 -22 50 -28
162 -97 55 -34 219 -134 365 -224 146 -89 281 -172 300 -185 41 -26 496 -311
525 -328 11 -7 45 -29 77 -49 31 -21 60 -38 63 -38 3 0 11 -5 18 -11 7 -6 74
-50 149 -97 76 -48 280 -179 453 -292 174 -113 337 -218 363 -234 26 -15 49
-32 50 -37 2 -5 8 -9 14 -9 5 0 35 -17 66 -39 32 -21 235 -157 452 -302 217
-144 436 -290 485 -324 316 -217 733 -503 805 -554 47 -33 128 -90 180 -126
52 -36 115 -80 140 -98 165 -118 315 -224 333 -237 71 -49 657 -472 682 -492
9 -7 344 -254 414 -305 104 -76 751 -566 891 -676 97 -75 95 -74 165 -127 33
-25 69 -52 80 -62 11 -9 79 -63 151 -120 246 -193 420 -331 484 -383 20 -16
53 -43 75 -60 21 -16 77 -62 124 -100 47 -39 149 -122 226 -185 139 -113 407
-335 455 -377 14 -12 90 -76 170 -144 80 -67 169 -143 199 -168 68 -58 331
-284 355 -306 6 -5 45 -39 86 -75 41 -36 80 -69 86 -75 6 -5 44 -39 85 -75 69
-61 102 -91 204 -182 22 -20 50 -45 61 -55 12 -10 63 -56 114 -103 51 -47 101
-92 111 -101 49 -43 404 -371 549 -509 353 -335 909 -884 1180 -1167 107 -111
374 -393 405 -427 11 -13 199 -218 261 -286 77 -84 105 -115 177 -197 l72 -82
60 92 c70 106 109 169 185 292 19 32 43 69 52 84 9 14 23 37 31 51 8 14 45 77
82 140 38 63 78 133 90 155 13 22 54 96 92 165 130 234 324 612 411 800 16 36
49 106 72 155 38 82 59 128 95 210 85 190 230 551 317 785 27 74 52 142 55
150 3 8 7 20 9 25 1 6 32 96 68 200 95 277 161 491 271 885 20 73 68 259 81
313 2 9 6 25 8 35 2 9 9 40 16 67 6 28 17 77 25 110 15 63 64 286 71 320 2 11
6 31 9 45 2 14 7 41 10 60 3 19 8 42 10 50 4 14 59 312 69 375 2 17 8 50 11
75 4 25 9 54 11 65 6 29 11 64 19 120 13 98 15 111 29 215 8 58 17 128 20 155
3 28 7 66 10 85 3 19 7 62 11 95 3 33 7 74 9 90 2 17 7 64 11 105 9 110 15
179 20 230 4 43 10 126 20 305 26 449 26 1261 0 1615 -1 25 -6 95 -10 155 -3
61 -8 126 -10 145 -2 19 -6 71 -10 115 -3 44 -8 98 -10 120 -3 22 -7 65 -9 95
-3 30 -7 71 -10 90 -3 19 -8 62 -11 94 -5 57 -10 96 -20 161 -2 17 -7 57 -10
90 -4 33 -8 67 -10 75 -3 8 -7 38 -10 66 -3 28 -8 61 -10 75 -3 13 -8 44 -11
69 -3 25 -7 52 -9 60 -2 8 -7 35 -10 60 -5 42 -11 74 -35 203 -5 28 -12 68
-15 87 -3 19 -21 112 -40 205 -18 94 -36 181 -39 195 -2 14 -10 48 -16 75 -6
28 -14 61 -16 75 -70 361 -342 1304 -494 1705 -10 28 -35 95 -55 150 -45 124
-132 349 -151 392 -8 18 -21 50 -28 70 -7 21 -23 58 -34 83 -11 25 -48 110
-83 190 -175 409 -371 806 -634 1285 -69 125 -259 446 -365 615 -86 137 -385
591 -413 625 -4 6 -53 73 -109 150 -508 704 -1040 1319 -1660 1920 -138 134
-319 303 -398 371 -25 21 -49 44 -55 50 -12 14 -129 115 -295 255 -156 131
-439 357 -585 466 -60 46 -114 86 -120 91 -18 15 -358 256 -433 307 -348 238
-773 501 -1107 685 -33 18 -78 43 -100 56 -297 171 -964 490 -1380 660 -88 36
-175 73 -193 81 -18 8 -61 25 -95 37 -34 13 -109 41 -167 63 -58 23 -159 60
-225 83 -66 23 -129 45 -140 50 -54 23 -450 149 -670 214 -369 108 -840 223
-1254 306 -154 30 -184 36 -251 46 -19 3 -55 9 -80 14 -38 8 -262 44 -340 55
-14 2 -43 6 -65 9 -22 4 -58 9 -80 11 -51 6 -102 13 -190 25 -93 13 -148 19
-215 25 -30 3 -73 7 -95 10 -64 7 -205 20 -335 30 -41 3 -100 8 -130 10 -30 2
-109 7 -175 10 -66 4 -149 9 -185 11 -72 6 -1057 14 -1062 9z"/>
</g>
</svg>
