<?xml version="1.0" encoding="UTF-8" standalone="no"?>
<!-- Created with Inkscape (http://www.inkscape.org/) -->

<svg
   width="130.89426mm"
   height="42.126385mm"
   viewBox="0 0 130.89427 42.126385"
   version="1.1"
   id="svg1"
   inkscape:version="1.3 (0e150ed, 2023-07-21)"
   sodipodi:docname="jjarqk_noText.svg"
   inkscape:export-filename="jjarqk.png"
   inkscape:export-xdpi="602.94751"
   inkscape:export-ydpi="602.94751"
   xmlns:inkscape="http://www.inkscape.org/namespaces/inkscape"
   xmlns:sodipodi="http://sodipodi.sourceforge.net/DTD/sodipodi-0.dtd"
   xmlns="http://www.w3.org/2000/svg"
   xmlns:svg="http://www.w3.org/2000/svg">
  <sodipodi:namedview
     id="namedview1"
     pagecolor="#ffffff"
     bordercolor="#000000"
     borderopacity="0.25"
     inkscape:showpageshadow="2"
     inkscape:pageopacity="0.0"
     inkscape:pagecheckerboard="0"
     inkscape:deskcolor="#d1d1d1"
     inkscape:document-units="mm"
     inkscape:zoom="1.0901457"
     inkscape:cx="267.8541"
     inkscape:cy="82.557772"
     inkscape:window-width="1512"
     inkscape:window-height="831"
     inkscape:window-x="0"
     inkscape:window-y="38"
     inkscape:window-maximized="0"
     inkscape:current-layer="layer1"
     inkscape:export-bgcolor="#ffffff00"
     showguides="true" />
  <defs
     id="defs1" />
  <g
     inkscape:label="Layer 1"
     inkscape:groupmode="layer"
     id="layer1"
     transform="translate(-36.948782,-109.53603)">
    <g
       id="text6"
       style="font-weight:bold;font-size:12.7px;font-family:'Roboto Mono';-inkscape-font-specification:'Roboto Mono Bold';white-space:pre;inline-size:90.7067;fill:#19647e;stroke:#000000;stroke-width:1.804;stroke-linecap:round;stroke-opacity:0;paint-order:stroke markers fill"
       transform="translate(0,1.0562765)"
       aria-label="JJARQK Technologies">
      <path
         style="font-style:italic;font-weight:900;font-family:'Mona Sans';-inkscape-font-specification:'Mona Sans Heavy Italic'"
         d="m 83.819669,125.82391 q -0.4699,0 -0.9017,-0.1016 -0.4191,-0.0889 -0.6223,-0.2159 l 0.4191,-2.032 q 0.1016,0.1016 0.3175,0.1651 0.2286,0.0635 0.4445,0.0635 0.381,0 0.635,-0.1143 0.254,-0.1143 0.4318,-0.4191 0.1778,-0.3175 0.3048,-0.9271 l 1.2192,-5.8039 h 2.5527 l -1.3462,6.3881 q -0.2032,0.9398 -0.5461,1.5367 -0.3302,0.5842 -0.7874,0.9017 -0.4445,0.3175 -0.9906,0.4318 -0.5334,0.127 -1.1303,0.127 z m 5.25777,0 q -0.4699,0 -0.9017,-0.1016 -0.4191,-0.0889 -0.6223,-0.2159 l 0.4191,-2.032 q 0.1016,0.1016 0.3175,0.1651 0.2286,0.0635 0.4445,0.0635 0.381,0 0.635,-0.1143 0.254,-0.1143 0.4318,-0.4191 0.1778,-0.3175 0.3048,-0.9271 l 1.2192,-5.8039 h 2.5527 l -1.3462,6.3881 q -0.2032,0.9398 -0.5461,1.5367 -0.3302,0.5842 -0.7874,0.9017 -0.4445,0.3175 -0.9906,0.4318 -0.5334,0.127 -1.1303,0.127 z m 3.454359,-0.127 4.7879,-9.2583 h 3.073402 l 1.0541,9.2583 h -2.438402 l -0.1524,-1.651 h -2.9464 l -0.8128,1.651 z m 4.318,-3.6068 h 1.8288 l -0.1778,-2.0955 -0.0889,-0.9906 h -0.0889 l -0.4572,0.9906 z m 5.461002,3.6068 1.9177,-9.2583 h 4.445 q 0.7874,0 1.3462,0.1778 0.5715,0.1778 0.9398,0.508 0.3683,0.3175 0.5334,0.7747 0.1778,0.4445 0.1524,0.9906 -0.0254,0.9652 -0.508,1.6637 -0.4826,0.6858 -1.4605,0.9779 l -0.0254,0.0889 q 0.5715,0.1651 0.7874,0.6858 0.2286,0.508 0.1016,1.1176 l -0.2794,1.3843 q -0.0508,0.2794 -0.0762,0.5207 -0.0127,0.2286 0,0.3683 h -2.5654 q -0.0127,-0.1524 -0.0127,-0.3556 0.0127,-0.2159 0.0635,-0.3937 l 0.2921,-1.3208 q 0.0889,-0.3937 0.0127,-0.635 -0.0762,-0.2413 -0.3048,-0.3556 -0.2159,-0.1143 -0.5715,-0.1143 h -1.5875 l -0.6477,3.175 z m 3.5814,-5.0546 h 1.7399 q 0.6223,0 1.0033,-0.3302 0.381,-0.3302 0.3937,-0.9017 0.0127,-0.2921 -0.0889,-0.4953 -0.1016,-0.2159 -0.3302,-0.3302 -0.2286,-0.1143 -0.6096,-0.1143 h -1.651 z m 13.65247,7.3533 -3.4925,-2.1971 q -0.9652,-0.0635 -1.7145,-0.3937 -0.7366,-0.3429 -1.2319,-0.9144 -0.4953,-0.5842 -0.7366,-1.3589 -0.2286,-0.7747 -0.2032,-1.7145 0.0381,-1.1684 0.4191,-2.0955 0.381,-0.9398 1.0414,-1.6129 0.6731,-0.6731 1.5748,-1.0287 0.9017,-0.3556 1.9812,-0.3556 1.0668,0 1.8796,0.3175 0.8255,0.3175 1.3716,0.9017 0.5588,0.5715 0.8255,1.3843 0.2667,0.8001 0.2286,1.7907 -0.0381,1.1684 -0.4572,2.1463 -0.4191,0.9779 -1.143,1.6383 -0.7239,0.6477 -1.6637,0.8763 l 2.0574,0.4191 -0.4572,2.2098 z m -3.0226,-4.3307 q 0.7112,0 1.2192,-0.381 0.508,-0.381 0.8001,-1.0668 0.2921,-0.6858 0.3175,-1.6002 0.0254,-0.5461 -0.0889,-0.9398 -0.1143,-0.4064 -0.3429,-0.6731 -0.2286,-0.2667 -0.5588,-0.3937 -0.3175,-0.1397 -0.7239,-0.1397 -0.6985,0 -1.2192,0.381 -0.5207,0.381 -0.8128,1.0668 -0.2794,0.6731 -0.3175,1.6002 -0.0127,0.5461 0.1016,0.9525 0.1143,0.3937 0.3429,0.6604 0.2286,0.2667 0.5461,0.4064 0.3302,0.127 0.7366,0.127 z m 5.05458,2.032 1.9177,-9.2583 h 2.5527 l -0.7366,3.5433 3.4544,-3.5433 h 3.1369 l -4.0894,3.9116 2.2987,5.3467 h -2.8067 l -1.4351,-3.5941 -1.2446,1.1557 -0.4953,2.4384 z"
         id="path1" />
      <path
         style="font-weight:900;font-family:'Mona Sans';-inkscape-font-specification:'Mona Sans Heavy'"
         d="m 85.572269,141.69441 v -7.0485 h -2.5527 v -2.2098 h 7.7597 v 2.2098 h -2.6289 v 7.0485 z m 8.039084,0.127 q -1.1303,0 -1.9304,-0.4318 -0.7874,-0.4445 -1.2065,-1.2319 -0.4191,-0.8001 -0.4191,-1.8542 0,-1.1303 0.4318,-1.9431 0.4318,-0.8255 1.2065,-1.2573 0.7874,-0.4445 1.8288,-0.4445 1.257299,0 2.057399,0.5461 0.8001,0.5334 1.143,1.4732 0.3556,0.9398 0.2286,2.1336 h -4.508499 q -0.0127,0.381 0.127,0.6604 0.1524,0.2667 0.4191,0.4064 0.2667,0.1397 0.6223,0.1397 0.381,0 0.6604,-0.1524 0.2794,-0.1651 0.355599,-0.4191 h 2.2733 q -0.0762,0.7112 -0.5207,1.2446 -0.4318,0.5334 -1.143,0.8382 -0.711199,0.2921 -1.625599,0.2921 z m -1.1684,-4.2545 -0.2032,-0.2032 h 2.539999 l -0.215899,0.1905 q 0.0254,-0.3556 -0.1016,-0.5969 -0.127,-0.2413 -0.3683,-0.3683 -0.2413,-0.1397 -0.5715,-0.1397 -0.3429,0 -0.5969,0.1397 -0.2413,0.1397 -0.3683,0.3937 -0.127,0.254 -0.1143,0.5842 z m 8.826467,4.2545 q -0.8001,0 -1.447805,-0.254 -0.6477,-0.254 -1.1176,-0.7239 -0.4572,-0.4826 -0.7112,-1.143 -0.2413,-0.6604 -0.2413,-1.4732 0,-1.0922 0.4318,-1.8923 0.4445,-0.8001 1.2446,-1.2319 0.812805,-0.4445 1.905005,-0.4445 0.9398,0 1.6637,0.3556 0.7239,0.3429 1.143,0.9652 0.4191,0.6223 0.4318,1.4478 h -2.3622 q -0.0381,-0.2794 -0.1778,-0.4572 -0.127,-0.1778 -0.3175,-0.2667 -0.1905,-0.0889 -0.4318,-0.0889 -0.3683,0 -0.6096,0.2032 -0.2413,0.1905 -0.3556,0.5588 -0.1016,0.3556 -0.1016,0.8636 0,0.5715 0.127,0.9271 0.1397,0.3556 0.3683,0.5334 0.2413,0.1651 0.5588,0.1651 0.3048,0 0.508,-0.1016 0.2032,-0.1143 0.3175,-0.2921 0.1143,-0.1905 0.1397,-0.4191 h 2.3495 q -0.0254,0.8382 -0.4572,1.4605 -0.4318,0.6223 -1.1684,0.9652 -0.7366,0.3429 -1.6891,0.3429 z m 4.26719,-0.127 v -9.2583 h 2.4257 v 3.4798 h 0.1016 q 0.254,-0.635 0.8001,-0.9398 0.5588,-0.3175 1.2446,-0.3175 0.508,0 0.9398,0.1524 0.4445,0.1524 0.7747,0.4826 0.3302,0.3302 0.508,0.8763 0.1905,0.5334 0.1905,1.2954 v 4.2291 h -2.4257 v -3.6957 q 0,-0.4572 -0.1016,-0.762 -0.1016,-0.3175 -0.3175,-0.4699 -0.2159,-0.1524 -0.5842,-0.1524 -0.381,0 -0.635,0.1778 -0.2413,0.1778 -0.3683,0.4445 -0.127,0.2667 -0.127,0.5461 v 3.9116 z m 8.2931,0 v -6.9088 h 2.3368 l 0.0889,1.1303 h 0.1016 q 0.254,-0.635 0.8001,-0.9398 0.5588,-0.3175 1.2446,-0.3175 0.508,0 0.9398,0.1524 0.4445,0.1524 0.7747,0.4826 0.3302,0.3302 0.508,0.8763 0.1905,0.5334 0.1905,1.2954 v 4.2291 h -2.4257 v -3.6957 q 0,-0.4572 -0.1016,-0.762 -0.1016,-0.3175 -0.3175,-0.4699 -0.2159,-0.1524 -0.5842,-0.1524 -0.381,0 -0.635,0.1778 -0.2413,0.1778 -0.3683,0.4445 -0.127,0.2667 -0.127,0.5461 v 3.9116 z m 11.4681,0.127 q -0.8001,0 -1.4478,-0.2286 -0.6477,-0.2413 -1.1176,-0.6985 -0.4699,-0.4699 -0.7239,-1.1303 -0.254,-0.6731 -0.254,-1.524 0,-1.0795 0.4064,-1.8796 0.4191,-0.8001 1.2065,-1.2446 0.8001,-0.4572 1.9304,-0.4572 0.8001,0 1.4478,0.2413 0.6477,0.2286 1.1176,0.6985 0.4699,0.4572 0.7239,1.1176 0.254,0.6604 0.254,1.524 0,1.0668 -0.4191,1.8796 -0.4064,0.8001 -1.1938,1.2573 -0.7874,0.4445 -1.9304,0.4445 z m 0,-1.9431 q 0.3302,0 0.5715,-0.1651 0.254,-0.1651 0.381,-0.5207 0.1397,-0.3683 0.1397,-0.9525 0,-0.4445 -0.0762,-0.7493 -0.0762,-0.3175 -0.2286,-0.508 -0.1397,-0.2032 -0.3429,-0.2921 -0.1905,-0.0889 -0.4445,-0.0889 -0.3302,0 -0.5842,0.1651 -0.2413,0.1651 -0.381,0.5207 -0.127,0.3556 -0.127,0.9525 0,0.4445 0.0762,0.762 0.0762,0.3048 0.2159,0.508 0.1524,0.1905 0.3556,0.2794 0.2032,0.0889 0.4445,0.0889 z m 4.54659,1.8161 v -9.2583 h 2.4257 v 9.2583 z m 6.9723,0.127 q -0.8001,0 -1.4478,-0.2286 -0.6477,-0.2413 -1.1176,-0.6985 -0.4699,-0.4699 -0.7239,-1.1303 -0.254,-0.6731 -0.254,-1.524 0,-1.0795 0.4064,-1.8796 0.4191,-0.8001 1.2065,-1.2446 0.8001,-0.4572 1.9304,-0.4572 0.8001,0 1.4478,0.2413 0.6477,0.2286 1.1176,0.6985 0.4699,0.4572 0.7239,1.1176 0.254,0.6604 0.254,1.524 0,1.0668 -0.4191,1.8796 -0.4064,0.8001 -1.1938,1.2573 -0.7874,0.4445 -1.9304,0.4445 z m 0,-1.9431 q 0.3302,0 0.5715,-0.1651 0.254,-0.1651 0.381,-0.5207 0.1397,-0.3683 0.1397,-0.9525 0,-0.4445 -0.0762,-0.7493 -0.0762,-0.3175 -0.2286,-0.508 -0.1397,-0.2032 -0.3429,-0.2921 -0.1905,-0.0889 -0.4445,-0.0889 -0.3302,0 -0.5842,0.1651 -0.2413,0.1651 -0.381,0.5207 -0.127,0.3556 -0.127,0.9525 0,0.4445 0.0762,0.762 0.0762,0.3048 0.2159,0.508 0.1524,0.1905 0.3556,0.2794 0.2032,0.0889 0.4445,0.0889 z m 7.73428,4.064 q -0.9906,0 -1.6891,-0.2794 -0.6985,-0.2794 -1.0922,-0.7874 -0.381,-0.4953 -0.4191,-1.1557 h 2.3368 q 0.0254,0.1524 0.1397,0.2667 0.127,0.127 0.3175,0.1905 0.2032,0.0762 0.4699,0.0762 0.4826,0 0.7366,-0.1397 0.2667,-0.127 0.3683,-0.3683 0.1016,-0.2413 0.1016,-0.5588 v -1.0033 h -0.127 q -0.2032,0.4826 -0.7239,0.7874 -0.508,0.2921 -1.1811,0.2921 -0.5969,0 -1.0922,-0.2032 -0.4826,-0.2032 -0.8382,-0.6096 -0.3556,-0.4064 -0.5461,-1.0287 -0.1905,-0.6223 -0.1905,-1.4605 0,-1.1303 0.3302,-1.8542 0.3429,-0.7366 0.9398,-1.0922 0.5969,-0.3556 1.397,-0.3556 0.6731,0 1.1811,0.3048 0.5207,0.2921 0.7239,0.7747 h 0.127 l 0.0762,-0.9525 h 2.3495 v 5.8928 q 0,0.9144 -0.2667,1.5367 -0.254,0.635 -0.7493,1.016 -0.4826,0.381 -1.1684,0.5461 -0.6731,0.1651 -1.5113,0.1651 z m 0.1651,-4.5085 q 0.3683,0 0.5969,-0.1524 0.2413,-0.1524 0.3556,-0.3937 0.127,-0.254 0.1524,-0.5334 l -0.0127,-0.8128 q -0.0254,-0.2794 -0.1524,-0.5207 -0.1143,-0.2413 -0.3429,-0.381 -0.2286,-0.1524 -0.5969,-0.1524 -0.3302,0 -0.5842,0.1524 -0.254,0.1397 -0.3937,0.4699 -0.1397,0.3175 -0.1397,0.8509 0,0.5334 0.1397,0.8636 0.1397,0.3175 0.3937,0.4699 0.254,0.1397 0.5842,0.1397 z m 4.83868,2.2606 v -6.9088 h 2.4257 v 6.9088 z m 0,-7.6327 v -1.6256 h 2.4257 v 1.6256 z m 6.98499,7.7597 q -1.1303,0 -1.9304,-0.4318 -0.7874,-0.4445 -1.2065,-1.2319 -0.4191,-0.8001 -0.4191,-1.8542 0,-1.1303 0.4318,-1.9431 0.4318,-0.8255 1.2065,-1.2573 0.7874,-0.4445 1.8288,-0.4445 1.2573,0 2.0574,0.5461 0.8001,0.5334 1.143,1.4732 0.3556,0.9398 0.2286,2.1336 h -4.5085 q -0.0127,0.381 0.127,0.6604 0.1524,0.2667 0.4191,0.4064 0.2667,0.1397 0.6223,0.1397 0.381,0 0.6604,-0.1524 0.2794,-0.1651 0.3556,-0.4191 h 2.2733 q -0.0762,0.7112 -0.5207,1.2446 -0.4318,0.5334 -1.143,0.8382 -0.7112,0.2921 -1.6256,0.2921 z m -1.1684,-4.2545 -0.2032,-0.2032 h 2.54 l -0.2159,0.1905 q 0.0254,-0.3556 -0.1016,-0.5969 -0.127,-0.2413 -0.3683,-0.3683 -0.2413,-0.1397 -0.5715,-0.1397 -0.3429,0 -0.5969,0.1397 -0.2413,0.1397 -0.3683,0.3937 -0.127,0.254 -0.1143,0.5842 z m 8.35659,4.2545 q -0.9652,0 -1.6764,-0.2921 -0.7112,-0.2921 -1.1049,-0.8128 -0.381,-0.5334 -0.381,-1.2319 h 2.3876 q 0.0127,0.3556 0.2413,0.508 0.2413,0.1524 0.5969,0.1524 0.3556,0 0.5207,-0.1143 0.1651,-0.127 0.1651,-0.3302 0,-0.1905 -0.1016,-0.2794 -0.1016,-0.0889 -0.3302,-0.1397 -0.2286,-0.0635 -0.6223,-0.1143 -0.9271,-0.1397 -1.524,-0.381 -0.5969,-0.2413 -0.889,-0.6731 -0.2794,-0.4445 -0.2794,-1.1303 0,-0.6985 0.381,-1.2192 0.3937,-0.5207 1.0922,-0.8128 0.6985,-0.2921 1.6256,-0.2921 0.8636,0 1.524,0.2794 0.6604,0.2794 1.0414,0.7747 0.381,0.4953 0.4064,1.1557 h -2.3876 q 0,-0.1778 -0.0762,-0.2921 -0.0762,-0.127 -0.2286,-0.1778 -0.1397,-0.0635 -0.3556,-0.0635 -0.2667,0 -0.4318,0.1143 -0.1651,0.1016 -0.1651,0.3175 0,0.1778 0.1143,0.2794 0.127,0.0889 0.4064,0.1524 0.2921,0.0635 0.762,0.127 0.6731,0.0889 1.143,0.254 0.4826,0.1524 0.7747,0.4191 0.3048,0.254 0.4445,0.6223 0.1397,0.3683 0.1397,0.8636 0,1.1176 -0.889,1.7272 -0.8763,0.6096 -2.3241,0.6096 z"
         id="path3" />
    </g>
    <path
       id="path2"
       style="fill:#19647e;stroke:#000000;stroke-width:1.804;stroke-linecap:round;stroke-opacity:0;paint-order:stroke markers fill"
       d="m 58.052133,110.43803 a 20.201288,20.201288 0 0 0 -20.201351,20.20135 20.201288,20.201288 0 0 0 17.902783,20.03702 c 3.635221,-14.4567 -1.530656,-24.65845 -1.530656,-24.65845 0,0 13.089928,7.12472 20.677808,15.73703 a 20.201288,20.201288 0 0 0 3.352767,-11.1156 20.201288,20.201288 0 0 0 -20.201351,-20.20135 z" />
  </g>
</svg>
