<?xml version="1.0" encoding="UTF-8" standalone="no"?>
<!-- Created with Inkscape (http://www.inkscape.org/) -->

<svg
   width="95.198288mm"
   height="42.126385mm"
   viewBox="0 0 95.198298 42.126385"
   version="1.1"
   id="svg1"
   inkscape:version="1.3 (0e150ed, 2023-07-21)"
   sodipodi:docname="jjarqkHunt_noText.svg"
   inkscape:export-filename="jjarqkHuntDraft.png"
   inkscape:export-xdpi="602.94751"
   inkscape:export-ydpi="602.94751"
   xmlns:inkscape="http://www.inkscape.org/namespaces/inkscape"
   xmlns:sodipodi="http://sodipodi.sourceforge.net/DTD/sodipodi-0.dtd"
   xmlns="http://www.w3.org/2000/svg"
   xmlns:svg="http://www.w3.org/2000/svg">
  <sodipodi:namedview
     id="namedview1"
     pagecolor="#ffffff"
     bordercolor="#000000"
     borderopacity="0.25"
     inkscape:showpageshadow="2"
     inkscape:pageopacity="0.0"
     inkscape:pagecheckerboard="0"
     inkscape:deskcolor="#d1d1d1"
     inkscape:document-units="mm"
     inkscape:zoom="1.1728376"
     inkscape:cx="218.70036"
     inkscape:cy="83.558031"
     inkscape:window-width="1512"
     inkscape:window-height="831"
     inkscape:window-x="0"
     inkscape:window-y="38"
     inkscape:window-maximized="0"
     inkscape:current-layer="g2"
     inkscape:export-bgcolor="#ffffff00"
     showguides="true" />
  <defs
     id="defs1" />
  <g
     inkscape:label="Layer 1"
     inkscape:groupmode="layer"
     id="layer1"
     transform="translate(-36.948782,-109.53603)">
    <g
       id="g2"
       transform="translate(0,-1.3469077)">
      <path
         style="font-style:italic;font-weight:900;font-size:11.2889px;font-family:'Mona Sans';-inkscape-font-specification:'Mona Sans Heavy Italic';white-space:pre;inline-size:90.7067;fill:#19647e;stroke:#000000;stroke-width:1.804;stroke-linecap:round;stroke-opacity:0;paint-order:stroke markers fill"
         d="m 83.719481,125.8098 q -0.41769,0 -0.801512,-0.0903 -0.372534,-0.079 -0.553156,-0.19191 l 0.372533,-1.80622 q 0.09031,0.0903 0.282223,0.14676 0.2032,0.0564 0.395111,0.0564 0.338667,0 0.564445,-0.1016 0.225778,-0.1016 0.383823,-0.37253 0.158045,-0.28223 0.270934,-0.82409 l 1.083734,-5.15903 h 2.269069 l -1.196623,5.67832 q -0.180623,0.83537 -0.485423,1.36595 -0.293512,0.51929 -0.699912,0.80151 -0.395111,0.28223 -0.880534,0.38383 -0.474134,0.11289 -1.004712,0.11289 z m 4.673578,0 q -0.417689,0 -0.801512,-0.0903 -0.372534,-0.079 -0.553156,-0.19191 l 0.372534,-1.80622 q 0.09031,0.0903 0.282222,0.14676 0.2032,0.0564 0.395112,0.0564 0.338667,0 0.564445,-0.1016 0.225778,-0.1016 0.383822,-0.37253 0.158045,-0.28223 0.270934,-0.82409 l 1.083734,-5.15903 h 2.269069 l -1.196623,5.67832 q -0.180623,0.83537 -0.485423,1.36595 -0.293511,0.51929 -0.699912,0.80151 -0.395111,0.28223 -0.880534,0.38383 -0.474134,0.11289 -1.004712,0.11289 z m 3.070545,-0.11289 4.255916,-8.22961 h 2.731914 l 0.936978,8.22961 h -2.167468 l -0.135467,-1.46756 h -2.619025 l -0.72249,1.46756 z m 3.838226,-3.20605 h 1.625602 l -0.158044,-1.86267 -0.07902,-0.88053 h -0.07902 l -0.406401,0.88053 z m 4.85423,3.20605 1.70462,-8.22961 h 3.95112 q 0.69991,0 1.19662,0.15804 0.508,0.15805 0.83538,0.45156 0.32738,0.28222 0.47413,0.68862 0.15805,0.39511 0.13547,0.88054 -0.0226,0.85795 -0.45156,1.47884 -0.42898,0.6096 -1.29822,0.86925 l -0.0226,0.079 q 0.508,0.14676 0.69991,0.6096 0.2032,0.45156 0.0903,0.99342 l -0.24835,1.23049 q -0.0452,0.24836 -0.0677,0.46285 -0.0113,0.2032 0,0.32738 h -2.28036 q -0.0113,-0.13547 -0.0113,-0.31609 0.0113,-0.19191 0.0564,-0.34996 l 0.25965,-1.17404 q 0.079,-0.34996 0.0113,-0.56445 -0.0677,-0.21449 -0.27094,-0.31609 -0.19191,-0.1016 -0.508,-0.1016 h -1.41111 l -0.57573,2.82223 z m 3.18347,-4.49299 h 1.54658 q 0.55315,0 0.89182,-0.29351 0.33867,-0.29351 0.34996,-0.80151 0.0113,-0.25964 -0.079,-0.44027 -0.0903,-0.19191 -0.29351,-0.29351 -0.2032,-0.1016 -0.54187,-0.1016 h -1.46755 z m 12.13554,6.53628 -3.10445,-1.95298 q -0.85796,-0.0564 -1.524,-0.34996 -0.65476,-0.3048 -1.09502,-0.8128 -0.44027,-0.51929 -0.65476,-1.20791 -0.2032,-0.68862 -0.18062,-1.524 0.0339,-1.03858 0.37253,-1.86267 0.33867,-0.83538 0.92569,-1.43369 0.59831,-0.59831 1.39982,-0.9144 0.80152,-0.31609 1.76107,-0.31609 0.94827,0 1.67076,0.28222 0.73378,0.28222 1.2192,0.80151 0.49671,0.508 0.73378,1.23049 0.23707,0.7112 0.2032,1.59174 -0.0339,1.03858 -0.4064,1.90782 -0.37253,0.86925 -1.016,1.45627 -0.64347,0.57573 -1.47885,0.77893 l 1.8288,0.37254 -0.4064,1.96427 z m -2.68676,-3.84952 q 0.63218,0 1.08373,-0.33866 0.45156,-0.33867 0.71121,-0.94827 0.25964,-0.6096 0.28222,-1.4224 0.0226,-0.48543 -0.079,-0.83538 -0.1016,-0.36125 -0.3048,-0.59831 -0.20321,-0.23707 -0.49672,-0.34996 -0.28222,-0.12418 -0.64346,-0.12418 -0.62089,0 -1.08374,0.33867 -0.46284,0.33867 -0.72249,0.94827 -0.24835,0.59831 -0.28222,1.4224 -0.0113,0.48542 0.0903,0.84667 0.1016,0.34995 0.3048,0.58702 0.2032,0.23707 0.48542,0.36124 0.29352,0.11289 0.65476,0.11289 z m 4.49297,1.80623 1.70462,-8.22961 h 2.26907 l -0.65475,3.1496 3.07058,-3.1496 h 2.78836 l -3.63503,3.47698 2.04329,4.75263 h -2.49485 l -1.27564,-3.19476 -1.10631,1.02729 -0.44027,2.16747 z"
         id="text6"
         transform="translate(0.44383822,1.0562765)"
         aria-label="JJARQK " />
      <path
         style="font-weight:900;font-size:19.7556px;font-family:'Mona Sans';-inkscape-font-specification:'Mona Sans Heavy';white-space:pre;inline-size:90.7067;fill:#19647e;stroke:#000000;stroke-width:1.804;stroke-linecap:round;stroke-opacity:0;paint-order:stroke markers fill"
         d="m 84.281105,125.69691 v -14.40184 h 4.010387 v 5.84766 l -0.434623,-0.43462 h 6.361303 l -0.434623,0.43462 v -5.84766 h 4.010387 v 14.40184 h -4.010387 v -6.02546 l 0.434623,0.43462 h -6.361303 l 0.434623,-0.43462 v 6.02546 z m 19.637035,0.19755 q -1.26436,0 -2.11385,-0.47413 -0.84949,-0.49389 -1.26435,-1.4224 -0.41487,-0.94827 -0.41487,-2.2719 v -6.77617 h 3.77332 v 5.74888 q 0,0.7112 0.15804,1.18534 0.15805,0.47413 0.49389,0.73095 0.3556,0.23707 0.90876,0.23707 0.59267,0 0.96802,-0.27658 0.39512,-0.27658 0.59267,-0.69144 0.19756,-0.41487 0.19756,-0.84949 v -6.08473 h 3.77332 v 10.74705 h -3.63503 l -0.13829,-1.75825 h -0.15805 q -0.37535,0.96802 -1.22484,1.46191 -0.84949,0.49389 -1.9163,0.49389 z m 9.10731,-0.19755 v -10.74705 h 3.63503 l 0.13829,1.75825 h 0.15805 q 0.39511,-0.98778 1.2446,-1.46192 0.86924,-0.49389 1.93605,-0.49389 0.79022,0 1.46191,0.23707 0.69145,0.23707 1.20509,0.75071 0.51365,0.51365 0.79023,1.36314 0.29633,0.82974 0.29633,2.01507 v 6.57862 h -3.77332 v -5.74888 q 0,-0.7112 -0.15804,-1.18534 -0.15805,-0.49389 -0.49389,-0.73096 -0.33585,-0.23706 -0.90876,-0.23706 -0.59267,0 -0.98778,0.27658 -0.37536,0.27657 -0.57291,0.69144 -0.19756,0.41487 -0.19756,0.84949 v 6.08473 z m 16.61443,0 q -1.28411,0 -1.97556,-0.37536 -0.69144,-0.37536 -0.94827,-1.04705 -0.25682,-0.69144 -0.25682,-1.58044 v -4.72159 h -1.79776 v -3.02261 h 1.79776 v -2.74603 l 3.77332,-0.31609 v 3.06212 h 1.95581 v 3.02261 h -1.95581 v 4.01038 q 0,0.41487 0.21731,0.55316 0.21731,0.13829 0.55316,0.13829 h 1.18534 v 3.02261 z"
         id="text6-6"
         transform="translate(-0.94328763,19.575822)"
         aria-label="Hunt" />
    </g>
    <path
       id="path2"
       style="fill:#19647e;stroke:#000000;stroke-width:1.804;stroke-linecap:round;stroke-opacity:0;paint-order:stroke markers fill"
       d="m 58.052133,110.43803 a 20.201288,20.201288 0 0 0 -20.201351,20.20135 20.201288,20.201288 0 0 0 17.902783,20.03702 c 3.635221,-14.4567 -1.530656,-24.65845 -1.530656,-24.65845 0,0 13.089928,7.12472 20.677808,15.73703 a 20.201288,20.201288 0 0 0 3.352767,-11.1156 20.201288,20.201288 0 0 0 -20.201351,-20.20135 z" />
  </g>
</svg>
